/* XPM */
static char *result[] = {
/* columns rows colors chars-per-pixel */
"50 50 189 2 ",
"   c #7B6B27",
".  c #78692B",
"X  c #766732",
"o  c #766834",
"O  c #776A3B",
"+  c #796B35",
"@  c #7B6F43",
"#  c #7F7449",
"$  c #BD0613",
"%  c #B40E14",
"&  c #BC0C14",
"*  c #AC1515",
"=  c #A41E16",
"-  c #AB1B16",
";  c #B21215",
":  c #B91115",
">  c #B21816",
",  c #9C2819",
"<  c #8D3C1D",
"1  c #93321B",
"2  c #923A1D",
"3  c #9F3D1D",
"4  c #9F341B",
"5  c #AA2418",
"6  c #A52E1B",
"7  c #B92E1A",
"8  c #A3301B",
"9  c #A72626",
"0  c #B12C2D",
"q  c #BA3121",
"w  c #AE373C",
"e  c #BD313B",
"r  c #D9000E",
"t  c #C70513",
"y  c #CB0412",
"u  c #C40A13",
"i  c #D50112",
"p  c #DC0112",
"a  c #D40916",
"s  c #C61E1A",
"d  c #D5101D",
"f  c #E50012",
"g  c #E80012",
"h  c #D22519",
"j  c #CB381C",
"k  c #C31F28",
"l  c #D01521",
"z  c #CA2A38",
"x  c #C2363F",
"c  c #91471F",
"v  c #9E471F",
"b  c #A8471F",
"n  c #994C20",
"m  c #9B5D24",
"M  c #945823",
"N  c #9A5F3F",
"B  c #A05321",
"V  c #A35822",
"C  c #996425",
"Z  c #9A6826",
"A  c #807027",
"S  c #847428",
"D  c #8B7B29",
"F  c #81743E",
"G  c #A36A26",
"H  c #A56428",
"J  c #A87828",
"K  c #A16836",
"L  c #A47A3B",
"P  c #C47E2B",
"I  c #9D5F58",
"U  c #A64043",
"Y  c #8A7E4B",
"T  c #82764B",
"R  c #927F42",
"E  c #8E6854",
"W  c #9C6C51",
"Q  c #857B5A",
"!  c #94832B",
"~  c #9C8A2D",
"^  c #98862C",
"/  c #8F803A",
"(  c #9D8D3E",
")  c #AD822B",
"_  c #A18E2D",
"`  c #B98D2E",
"'  c #A5922E",
"]  c #AA962F",
"[  c #B4922F",
"{  c #B9942F",
"}  c #A18F3D",
"|  c #A08E33",
" . c #AD9B3C",
".. c #A99636",
"X. c #B29E31",
"o. c #B19E3D",
"O. c #BD9830",
"+. c #B5A131",
"@. c #BBA532",
"#. c #BDA933",
"$. c #B4A13C",
"%. c #B9A53A",
"&. c #BDAA3D",
"*. c #CA8D2D",
"=. c #D38A2C",
"-. c #C7952E",
";. c #C79F31",
":. c #C3A432",
">. c #C3AD34",
",. c #CAAC33",
"<. c #C3AE3B",
"1. c #D6A132",
"2. c #C6B035",
"3. c #CCB535",
"4. c #CFB836",
"5. c #C6B13B",
"6. c #CAB53C",
"7. c #CFB93B",
"8. c #D1B335",
"9. c #D3BC37",
"0. c #DABE37",
"q. c #D3BC3A",
"w. c #DBBF38",
"e. c #DDC437",
"r. c #D6C03B",
"t. c #DBC439",
"y. c #DFC939",
"u. c #DCC836",
"i. c #E0C73A",
"p. c #E4CB3B",
"a. c #E8CF3B",
"s. c #ECD33C",
"d. c #EED93D",
"f. c #F1D63C",
"g. c #F4DB3D",
"h. c #F9DE3D",
"j. c #FEE33F",
"k. c #8E814D",
"l. c #9A8B46",
"z. c #93864C",
"x. c #968848",
"c. c #8E845D",
"v. c #998C53",
"b. c #938759",
"n. c #9F9254",
"m. c #AC9A43",
"M. c #A1924A",
"N. c #A89849",
"B. c #A89A54",
"V. c #B6A440",
"C. c #BCA943",
"Z. c #B2A14A",
"A. c #BCAA4C",
"S. c #8D8468",
"D. c #978E6F",
"F. c #A59967",
"G. c #B1A362",
"H. c #C2AF46",
"J. c #C0AE4A",
"K. c #C6B346",
"L. c #CEBA44",
"P. c #CEBA4A",
"I. c #C7B54F",
"U. c #D2BD42",
"Y. c #D2BD4A",
"T. c #C1AF55",
"R. c #CBB956",
"E. c #D1BE54",
"W. c #D7C144",
"Q. c #DCC643",
"!. c #D9C44C",
"~. c #DDC94C",
"^. c #D6C24F",
"/. c #D6C354",
"(. c #DAC652",
"). c #D5C25A",
"_. c #DBC759",
"`. c #E3CB42",
"'. c #E2CD4C",
"]. c #ECD444",
"[. c #EBD44A",
"{. c #F1D741",
"}. c #F1D941",
"|. c #FFE640",
" X c #D5C467",
".X c #BD8387",
"XX c #B3968D",
"oX c #C19294",
"OX c None",
/* pixels */
"OXOXOXOXOXOXOXOXOXOXOXOXOXOXOXOXOXOXOXOX# o .     . + F OXOXOXOXOXOXOXOXOXOXOXOXOXOXOXOXOXOXOXOXOXOX",
"OXOXOXOXOXOXOXOXOXOXOXOXOXOXOXOXOXOXOXm.&.5.5.4.4.3.3.5.#. .OXOXOXOXOXOXOXOXOXOXOXOXOXOXOXOXOXOXOXOX",
"OXOXOXOXOXOXOXOXOXOXOXOXOXOXOXOXOXOXC.r.s.g.h.j.j.j.g.f.a.t.7.%.OXOXOXOXOXOXOXOXOXOXOXOXOXOXOXOXOXOX",
"OXOXOXOXOXOXOXOXOXOXOXOXOXOXOXOXOXJ.y.j.|.j.j.|.j.j.j.j.|.j.f.t.5.OXOXOXOXOXOXOXOXOXOXOXOXOXOXOXOXOX",
"OXOXOXOXOXOXOXOXOXOXOXOXOXOXOXOXA.Q.h.j.j.j.j.j.j.j.j.|.|.j.j.j.a.3.OXOXOXOXOXOXOXOXOXOXOXOXOXOXOXOX",
"OXOXOXOXOXOXOXOXOXOXOXOXOXOXOXOXU.s.j.j.j.j.j.j.j.j.j.j.j.j.j.j.}.a.OXOXOXOXOXOXOXOXOXOXOXOXOXOXOXOX",
"OXOXOXOXOXOXOXOXOXOXOXOXOXOXOXT.`.h.|.j.|.j.j.j.j.j.j.j.j.j.j.j.|.f.U.OXOXOXOXOXOXOXOXOXOXOXOXOXOXOX",
"OXOXOXOXOXOXOXOXOXOXOXOXOXOXOXP.}.|.j.j.j.j.j.j.j.j.j.j.j.j.j.j.|.}.i.OXOXOXOXOXOXOXOXOXOXOXOXOXOXOX",
"OXOXOXOXOXOXOXOXOXOXOXOXOXOXOXi.h.j.j.j.j.j.h.|.j.|.j.j.j.|.h.|.j.j.}.I.OXOXOXOXOXOXOXOXOXOXOXOXOXOX",
"OXOXOXOXOXOXOXOXOXOXOXOXOXOXOX{.h.j.h.h.j.j.|.j.|.h.j.j.|.h.h.|.j.j.g.U.OXOXOXOXOXOXOXOXOXOXOXOXOXOX",
"OXOXOXOXOXOXOXOXOXOXOXOXOXOXP.s.s.s.f.f.h.|.j.j.j.j.j.|.j.|.|.h.j.j.}.`.OXOXOXOXOXOXOXOXOXOXOXOXOXOX",
"OXOXOXOXOXOXOXOXOXOXOXOXOXOXW.i.t.t.p.p.h.}.j.j.j.j.|.h.j.h.|.|.j.j.j.].R.OXOXOXOXOXOXOXOXOXOXOXOXOX",
"OXOXOXOXOXOXOXOXOXOXOXOXOXOX`.t.4.9.4.#.t.g.|.|.h.|.|.h.j.h.|.h.j.j.j.{.P.OXOXOXOXOXOXOXOXOXOXOXOXOX",
"OXOXOXOXOXOXOXOXOXOXOXOXOXE.`.q.@.X.] ~ #.s.|.h.|.|.h.|.j.|.|.|.j.j.j.f.Q.OXOXOXOXOXOXOXOXOXOXOXOXOX",
"OXOXOXOXOXOXOXOXOXOXOXOXOXY.y.X.D S D ! ,.f.j.j.h.|.j.j.|.h.h.|.j.j.j.g.'.OXOXOXOXOXOXOXOXOXOXOXOXOX",
"OXOXOXOXOXOXOXOXOXOXOXOXOXW.q.~ ^ ] #.2.s.h.j.|.h.|.j.j.j.|.|.h.j.j.j.j.[.OXOXOXOXOXOXOXOXOXOXOXOXOX",
"OXOXOXOXOXOXOXOXOXOXOXOXOXQ.a.3.#.3.9.9.f.j.j.j.j.j.j.j.j.j.j.j.j.j.j.j.].).OXOXOXOXOXOXOXOXOXOXOXOX",
"OXOXOXOXOXOXOXOXOXOXOXOXOX].d.e.4.9.t.t.s.j.j.j.j.j.j.j.j.j.j.j.j.j.j.j.].^.OXOXOXOXOXOXOXOXOXOXOXOX",
"OXOXOXOXOXOXOXOXOXOXOXOX_.].p.@.] @.3.4.d.j.j.j.j.j.j.j.j.j.j.j.j.j.j.j.}.!.OXOXOXOXOXOXOXOXOXOXOXOX",
"OXOXOXOXOXOXOXOXOXOXOXOX_.].e.~   D _ +.a.j.j.j.j.j.j.j.j.j.j.j.j.j.j.j.}.~.OXOXOXOXOXOXOXOXOXOXOXOX",
"OXOXOXOXOXOXOXOXOXOXOXOX(.].g.4.] ~ ! D 8.g.j.j.|.j.j.j.j.j.j.j.j.j.j.j.g.'.OXOXOXOXOXOXOXOXOXOXOXOX",
"OXOXOXOXOXOXOXOXOXOXOXOX~.}.j.p.3.>.>.] @.s.j.j.j.j.j.j.j.j.j.j.h.f.h.j.h.[.OXOXOXOXOXOXOXOXOXOXOXOX",
"OXOXOXOXOXOXOXOXOXOXOXOX~.g.j.a.9.t.t.2.3.s.j.j.j.j.j.j.j.j.j.j.s.i.s.g.h.].OXOXOXOXOXOXOXOXOXOXOXOX",
"OXOXOXOXOXOXOXOXOXOXOXOX'.g.j.s.t.a.s.t.s.g.j.j.j.j.j.j.j.j.j.j.a.9.0.a.g.[. XOXOXOXOXOXOXOXOXOXOXOX",
"OXOXOXOXOXOXOXOXOXOXOXOX[.}.j.f.s.d.j.s.g.j.j.j.j.j.j.j.j.h.|.g.r.@.@.#.s.}.).OXOXOXOXOXOXOXOXOXOXOX",
"OXOXOXOXOXOXOXOXOXOXOX X[.j.j.j.j.j.j.j.j.j.j.j.j.j.j.j.j.|.h.9._   S ~ e.]./.OXOXOXOXOXOXOXOXOXOXOX",
"OXOXOXOXOXOXOXOXOXOXOXG.I.u.d.j.|.|.|.j.j.j.j.j.j.j.j.j.h.|.|.i.#.] +.2.s.]./.OXOXOXOXOXOXOXOXOXOXOX",
"OXOXOXOXOXOXOXOXOXOXOXW K J { :.q.y.d.j.j.|.j.j.j.|.j.j.|.j.j.a.2.X.#.4.g.}.^.OXOXOXOXOXOXOXOXOXOXOX",
"OXOXOXOXOXOXOXOXOXOXOXU 9 = 8 n G J O.,.0.a.s.g.j.j.j.j.j.|.j.p.+.^ _ @.s.}.(.OXOXOXOXOXOXOXOXOXOXOX",
"OXOXOXOXOXOXOXOXOXOXOXx l r y $ * = 1 c C J { ,.9.p.s.d.g.h.j.t.X.! ^ X.s.{.!.OXOXOXOXOXOXOXOXOXOXOX",
"OXOXOXOXOXOXOXOXOXOXOXe d g f f p i a u : - , 2 c C J [ @.3.9.9.2.+.#.&.t.9.A.OXOXOXOXOXOXOXOXOXOXOX",
"OXOXOXOXOXOXOXOXOXOXE 0 a g f f f f f f p i y u : > 5 8 8 v B m C C Z Z G m N XXOXOXOXOXOXOXOXOXOXOX",
"OXOXOXOXOXOXOXOXb.l.L q p g g f f f f f f g f f f p y t u $ % * - = = = - * w XXOXOXOXOXOXOXOXOXOXOX",
"OXOXOXOXOXOXQ k.m.<.-.j p g f f f f f f f f f f f f g g g f p p p i i i p i z .XOXOXOXOXOXOXOXOXOXOX",
"OXOXOXOXD.Y / | >.p.1.j i f f f f f f f f f f f f f f f f f f f g f g g g f k I OXOXOXOXOXOXOXOXOXOX",
"OXOXOXb.N.&.2.] ~ #.;.b ; y p f g g f f f f f f f f f f f f f f f f f f g p s H R S.OXOXOXOXOXOXOXOX",
"OXOXn.C.r.3.@.~ ! ' 4.` V 6 * $ y p f f g g g g g f f f f f f f f f f f g f h P 6.%.M.c.OXOXOXOXOXOX",
"OXB.H.p.g.r.' ! ~ ' r.u.2.` G b 6 - ; $ y y i p p f f f f f g g g f f g f p h =.f.a.K.m.v.OXOXOXOXOX",
"F.J.`.j.j.p.' ! ' @.u.j.j.s.9.:.) G B 3 6 5 - > : $ u u u u t t t t t t u $ 7 *.f.s.u.4.%.M.OXOXOXOX",
"Z.Q.j.j.j.y.@.~ ' t.d.j.j.j.j.j.s.p.9.>.[ ) Z C M c c 2 1 1 1 1 1 1 1 1 2 < m :.p.>.+.4.p.q.Z.v.OXOX",
"5.s.j.j.j.f.a.@.] 4.g.j.j.j.j.j.j.j.j.d.s.a.y.y.t.9.8.>.,.:.:.:.:.:.:.>.,.3.t.d.g.>.^ _ t.g.i.H.OXOX",
"&.s.j.j.j.j.g.i.4.t.j.j.j.j.j.j.j.j.j.d.r.s.j.j.j.g.j.j.g.g.d.g.d.d.g.j.f.g.j.j.}.9._ ! 3.h.h.p.K.OX",
"B.7.s.j.j.j.j.g.d.f.j.j.j.j.j.j.j.f.t.9.2.a.j.j.j.j.j.j.j.|.|.|.j.|.j.j.j.j.j.j.g.>._ _ 4.h.j.h.`.A.",
"OXB.K.a.f.j.|.|.j.j.j.j.j.j.j.j.g.r.#.@.2.d.j.j.j.j.j.j.j.j.j.j.j.j.j.j.j.j.j.j.f.X.~ X.i.h.j.j.f.3.",
"OXOXv.$.q.a.s.}.g.j.j.j.j.j.j.j.s.2.+.@.p.g.j.j.j.j.j.j.j.j.j.j.j.j.j.j.j.j.j.j.f.#.! ] s.j.j.j.].5.",
"OXOXOXOXz.} $.<.7.r.y.s.d.g.j.j.i.4.2.4.f.j.|.j.j.j.j.j.j.j.j.j.j.j.j.j.j.j.j.j.f.3.] X.p.j.j.s.r.Z.",
"OXOXOXOXOXOXOXz.x.( } $.&.5.6.q.4.4.9.e.f.g.|.|.j.j.j.|.j.|.|.|.j.j.j.j.j.j.j.j.}.p.9.y.s.s.t.5.$.OX",
"OXOXOXOXOXOXOXOXOXOXOXOXOXl.( }  .$.C.<.7.r.t.y.a.s.s.s.s.d.f.f.d.j.j.j.g.j.g.f.s.i.t.9.q.5.$.OXOXOX",
"OXOXOXOXOXOXOXOXOXOXOXOXOXOXOXOXOXOXOXOXl.(  .o.%.&.H.<.<.<.&.<.&.2.2.2.5.&.2.<.&.&.V.m.l.OXOXOXOXOX",
"OXOXOXOXOXOXOXOXOXOXOXOXOXOXOXOXOXOXOXOXOXOXOXOXOXOXOXOXY T @ O + o o o o o O @ # c.S.OXOXOXOXOXOXOX"
};
