/* XPM */
static char *result[] = {
/* columns rows colors chars-per-pixel */
"50 50 244 2 ",
"   c #010101",
".  c #090706",
"X  c #0D0A05",
"o  c #0D0B0A",
"O  c #090708",
"+  c #150906",
"@  c #120D0C",
"#  c #1B0C0A",
"$  c #190A07",
"%  c #1B130C",
"&  c #151212",
"*  c #1B1514",
"=  c #1D1919",
"-  c #1C1816",
";  c #100F10",
":  c #210E0B",
">  c #24110D",
",  c #2A1E0E",
"<  c #26190D",
"1  c #2A1512",
"2  c #241C1B",
"3  c #291916",
"4  c #351815",
"5  c #3C1A15",
"6  c #341917",
"7  c #2B2212",
"8  c #27201E",
"9  c #322916",
"0  c #382618",
"q  c #3C311D",
"w  c #252122",
"e  c #2B2423",
"r  c #2A2828",
"t  c #352925",
"y  c #352B2A",
"u  c #3B2E2C",
"i  c #382723",
"p  c #3B332A",
"a  c #3B3332",
"s  c #373535",
"d  c #362F30",
"f  c #451E19",
"g  c #461E18",
"h  c #4E221C",
"j  c #45221E",
"k  c #4B3B1D",
"l  c #48361B",
"z  c #553B1C",
"x  c #462823",
"c  c #522D26",
"v  c #473628",
"b  c #523828",
"n  c #433939",
"m  c #473A36",
"M  c #563C35",
"N  c #79373D",
"B  c #53401F",
"V  c #554323",
"C  c #4B443B",
"Z  c #4C4A39",
"A  c #544E3D",
"S  c #594437",
"D  c #58533B",
"F  c #674A25",
"G  c #724C25",
"H  c #6B542A",
"J  c #76582B",
"K  c #67483A",
"L  c #66593A",
"P  c #744F38",
"I  c #7D6435",
"U  c #443F41",
"Y  c #4A4547",
"T  c #584B45",
"R  c #5A5541",
"E  c #5C5A41",
"W  c #575456",
"Q  c #5C4D54",
"!  c #6C4B45",
"~  c #794A42",
"^  c #645344",
"/  c #675747",
"(  c #735344",
")  c #7C5748",
"_  c #685C5B",
"`  c #775C53",
"'  c #694F53",
"]  c #626244",
"[  c #686749",
"{  c #7A6255",
"}  c #76684B",
"|  c #7A5868",
" . c #795B76",
".. c #696769",
"X. c #777578",
"o. c #706D6E",
"O. c #595C60",
"+. c #802F3A",
"@. c #B47B18",
"#. c #AE710F",
"$. c #856A37",
"%. c #9B6B3A",
"&. c #9A7437",
"*. c #8A6D32",
"=. c #A67937",
"-. c #A9742D",
";. c #8D5D18",
":. c #963A43",
">. c #865A48",
",. c #855B57",
"<. c #925657",
"1. c #8F4F47",
"2. c #A55454",
"3. c #B75657",
"4. c #AA5D4A",
"5. c #886849",
"6. c #98664A",
"7. c #987644",
"8. c #8C6451",
"9. c #866759",
"0. c #926553",
"q. c #976C59",
"w. c #98735E",
"e. c #867241",
"r. c #A87456",
"t. c #B67B5D",
"y. c #A97252",
"u. c #886966",
"i. c #986A69",
"p. c #87766D",
"a. c #997766",
"s. c #997774",
"d. c #886B76",
"f. c #BA6364",
"g. c #A67B66",
"h. c #B57E64",
"j. c #A77776",
"k. c #AD6E73",
"l. c #C25F5A",
"z. c #C76567",
"x. c #BC851E",
"c. c #BA872B",
"v. c #B5883B",
"b. c #AC8137",
"n. c #C48817",
"m. c #CD9219",
"M. c #D69A18",
"N. c #CB860A",
"B. c #DFA119",
"V. c #C7932E",
"C. c #DAA327",
"Z. c #9F8042",
"A. c #AA8847",
"S. c #B58249",
"D. c #BB9557",
"F. c #B18F4B",
"G. c #998479",
"H. c #8D817B",
"J. c #AB836D",
"K. c #A6826A",
"L. c #B4846C",
"P. c #BA8569",
"I. c #A98575",
"U. c #B78974",
"Y. c #B9937B",
"T. c #B2956D",
"R. c #BEA04C",
"E. c #C3965C",
"W. c #C28362",
"Q. c #C68A69",
"!. c #C18C73",
"~. c #CA9476",
"^. c #C6977B",
"/. c #D39A7A",
"(. c #C8936C",
"). c #DCA17F",
"_. c #A57C81",
"`. c #BC7E80",
"'. c #9C7A82",
"]. c #888288",
"[. c #998788",
"{. c #998B92",
"}. c #9B9395",
"|. c #A38885",
" X c #BB9985",
".X c #AA8F93",
"XX c #AA9A98",
"oX c #B69391",
"OX c #B5A596",
"+X c #9C9AA8",
"@X c #B29DA2",
"#X c #B7A8A5",
"$X c #A7A5B6",
"%X c #B5AEB0",
"&X c #B9B2B5",
"*X c #A1A1A3",
"=X c #C79C84",
"-X c #D19E81",
";X c #C9A289",
":X c #D4A284",
">X c #D9A483",
",X c #D8A889",
"<X c #D5AC93",
"1X c #DBB399",
"2X c #CFAA93",
"3X c #E1AA8A",
"4X c #E4B394",
"5X c #E7B99B",
"6X c #F1BE9D",
"7X c #C5AAA5",
"8X c #CBB6A9",
"9X c #D8B9A7",
"0X c #C5B9B8",
"qX c #D1B5B6",
"wX c #E5BDA2",
"eX c #D8C6B7",
"rX c #ECC2A5",
"tX c #E8C5AC",
"yX c #F3C3A4",
"uX c #FBCCAC",
"iX c #F4C9AB",
"pX c #E8CCB8",
"aX c #F6D3BA",
"sX c #EED1BD",
"dX c #B8B7C8",
"fX c #AEAFC3",
"gX c #C1BCC6",
"hX c #C7C4CD",
"jX c #DACBC7",
"kX c #DBD6D9",
"lX c #C9C9D7",
"zX c #E8D6C8",
"xX c #F9DBC6",
"cX c #EADDD4",
"vX c #E3CFC0",
"bX c #FFE1CC",
"nX c #F3E4D9",
"mX c #DBDBE5",
"MX c #E4E4EB",
"NX c #E9E7EA",
"BX c #FAFBFD",
"VX c #F3F2F4",
"CX c #EFEEF1",
"ZX c None",
/* pixels */
"ZXZXZXZXZXZXZXZXZXZXZXZXZXZXZXZXZXZXZXZXZXZXZXi 6 ZXZXZXZXZXZXZXZXZXZXZXZXZXZXZXZXZXZXZXZXZXZXZXZXZX",
"ZXZXZXZXZXZXZXZXZXZXZXZXZXZXZXZXZXZXZXi 1 : > 1 4 6 4 4 6 ZXZXZXZXZXZXZXZXZXZXZXZXZXZXZXZXZXZXZXZXZX",
"ZXZXZXZXZXZXZXZXZXZXZXZXZXZXZXZXZXx 1 $ $ : 5 g g c h g 4 1 i ZXZXZXZXZXZXZXZXZXZXZXZXZXZXZXZXZXZXZX",
"ZXZXZXZXZXZXZXZXZXZXZXZXZXZXZXZXx : + + : 4 f g h h h h h 5 1 ZXZXZXZXZXZXZXZXZXZXZXZXZXZXZXZXZXZXZX",
"ZXZXZXZXZXZXZXZXZXZXZXZXZXZXZXZX6 + + $ > 5 g h h h h h h h 4 1 ZXZXZXZXZXZXZXZXZXZXZXZXZXZXZXZXZXZX",
"ZXZXZXZXZXZXZXZXZXZXZXZXZXZXZXc > + + # : f g g h h h h h h 5 : x ZXZXZXZXZXZXZXZXZXZXZXZXZXZXZXZXZX",
"ZXZXZXZXZXZXZXZXZXZXZXZXZXZXZXx # + # # : 4 g g h h g h h g 4 # x ZXZXZXZXZXZXZXZXZXZXZXZXZXZXZXZXZX",
"ZXZXZXZXZXZXZXZXZXZXZXZXZXZXZXx > # * > > 1 f h c c c x f 4 1 1 6 ZXZXZXZXZXZXZXZXZXZXZXZXZXZXZXZXZX",
"ZXZXZXZXZXZXZXZXZXZXZXZXZXZXZXM S x b i x i j c M M 0 m K >.>.6 + y ZXZXZXZXZXZXZXZXZXZXZXZXZXZXZXZX",
"ZXZXZXZXZXZXZXZXZXZXZXZXZXZXy T P.K P.t.t.r.t.t.t.) S ,XyX6X>Xv   2 ZXZXZXZXZXZXZXZXZXZXZXZXZXZXZXZX",
"ZXZXZXZXZXZXZXZXZXZXZXZXZXZXu 9.P.[.G.L.h.y.!.P.s.*X}.=XuXuX5X(   & ZXZXZXZXZXZXZXZXZXZXZXZXZXZXZXZX",
"ZXZXZXZXZXZXZXZXZXZXZXZXy ZXt q.U.OX$Xp.g.L.g.9.%XkXOXY.bXxXyXa.. @ u ZXv = e ZXZXZXZXZXZXZXZXZXZXZX",
"ZXZXZXZXZXZXZXZXZXe y u @ 2 2 J./.;XK.Y.xXxXiX:XY.=X<XxXnXbXuXU.%   . e t   2 m ZXZXZXZXZXZXZXZXZXZX",
"ZXZXZXZXZXZXZXZXu @ O o     2 U.).:X9X9XaXaXuX1X=X4XrXwX1X<X<X/.8     o & . * y w e ZXZXZXZXZXZXZXZX",
"ZXZXZXZXZXZXZX- o           8 q.8.g.tXaXiX4X!.L.^.=Xa.9.i.8.g.:XM             O - u ZXZXZXZXZXZXZXZX",
"ZXZXZXZXZXZXZXt = .         m 0.~ >.>.0.q.6.q.I.Y.s.s.9.G.d.) ~.)               w m ZXZXZXZXZXZXZXZX",
"ZXZXZXZXZXZXZXZXu @         S q.,.d.s.s.i.i.<.,.d..X| i '.i.( Y.w..             o 2 & y ZXZXZXZXZXZX",
"ZXZXZXZXZXZXZXv 8 e *       ( 8.i.X.&XcXkXMX.X+._.kXi.N ' k.9.=X8.0 , < o .       @ @ u ZXZXZXZXZXZX",
"ZXZXZXZXZXZXZXZXZXv 2 .     K 8.j.M ' i._.oXz.3.z.f.2.i.s.-X9.U.u z &.&.P +.1.M & r m ZXZXZXZXZXZXZX",
"ZXZXZXZXZXZXZXZXZXy u y o i b ( g.,. .:.:.3.l.l.f.`.@X_.=XY.9.` Y & I &.%.4.f.z.~ v ZXZXZXZXZXZXZXZX",
"ZXZXZXZXZXZXZXZXZX<.2.>.S 7.k v 8.0.[.j.2.qXqXgXkXkXXXj.6Xg.m _ +Xw r $.=.=.S.S.S.A.7.ZXZXZXZXZXZXZX",
"ZXZXZXZXZXZXZXZX7.7.%.&.A.L O X._ 6.i.<.<.7XgX0X@X'.j.5XwX! o.lX$Xr w } F.v.c.v.v.F.A.ZXZXZXZXZXZXZX",
"ZXZXZXZXZXZXZX$.%.A.v.&.&.I q @X].! P.:Xh.j.h.h.!.:X5X X` ].CXBX+Xy e.e.F $.&.b.-.J ^ ZXZXZXZXZXZXZX",
"ZXZXZXZXZXZXZXW p V v 0 v q { o.].Q ) Y.=X;X2X2X;X;Xg.M P .XNXBXs.H q O ; @ @ < l + * Y ZXZXZXZXZXZX",
"ZXZXZXZXZXZX_ d   O ; = w o T o.{.! M 5.u.u.K.a.{ u.( >.y..XdXcX$.%     o * = O   O ; s _ ZXZXZXZXZX",
"ZXZXZXZXZXZXY O       e 3 J ^ {.j.6.b K ( { 9.` S S q./.3X7XfXXXH 9 7       o w ;     ; Y _ ZXZXZXZX",
"ZXZXZXZXZXo...Y r o = w X , L {.L.t.>.K H K ( ( 8.Y.9XzXpXgXfXXXI F R.9       X r w U O...o...ZXZXZX",
"ZXZXZXZXo.X...O.O.Y n ;   @ p..XW.-X;X^.:X:X:X4XrXvXzXcXpXdXdXOXI B J X         w W O.O.X.X.X.ZXZXZX",
"ZXZXZXZX..9.9._ W W r 7 B p {.|.Q.,X5X5X4X>X:X4XrX9XwXaXwX0XlXOX$.7 O           ; Y T 9.0.0._ ZXZXZX",
"ZXZXZXZXu.;XQ.6._ Y & , z ( +X_.t.Q.~.^.).3X:X).~.!.~./.Q.%XmX#X$.9 I Z.%         d >.t.:X=X{ ZXZXZX",
"ZXZXZXZX X4XQ.>.Y a .   7 p.fX|.y.P./.5XiXtXtXpXtX1X/.t.y.oXCXgXD.J l R.V         o M W.5X1XZXZXZXZX",
"ZXZXZXs.2X4Xh.ZXZX8 X   Z }.dXOXt./.6XrXiXtXpXxXcXsXiX3XQ.L.jXMXOXH l F X           1 y.5X1XZXZXZXZX",
"ZXZXZX#X9X2XoX[.n & G 9 } $XMX8XW.3XyXiXiXpXzXcXcXzXxXrX/.Q. XVXhXT.l @ B k .       C I.wX9XXXZXZXZX",
"ZXZXZX9X9X8X8Xg.p . < 9 p.dXmX#Xt.3XiXwXtXpXjXzXnXcXsX5XQ.-.y.kXNX&X7.H V F.B   . % 9.7X7X8X#XZXZXZX",
"ZXZX=X4XyXiXuX^.e     q [.lXmXY.=.E.>X[.@XsXvXzXzXpXT.c.@.#.6.&XBXkXOXH B &.7   i w.,XyXwXiXyXY.ZXZX",
"ZXu.J.;X;X5X,X9.*   7 v }.kXBXY.x.m.m.&. .J.E.E.E.v.x.@.m.#.>.{.VXVXhXT.B X     S /.g.rXyXrX<XJ...ZX",
"ZXU.g.s. .K.ZXn o X J b }.MXNXY.@.m.M.m.7.| r.V.V.c.x.@.n.6.| w.NXVXNXeXI l J H 8.U.% { Y.G.G.y.=XZX",
"a.^.=XL.I.L.ZXa X   + 0 R gXVX*XH I -.c.V.K. .u.r.6.y.a.u.,.-.-.nXBXNXXXZ.F q v.5.T ; O ( a.g.L.-XJ.",
"ZXJ.^.P.Y.L.ZXd       7 % r }.&X[ ] D D / L / Q Q P ~ ' =.#.N.V.eXeXF.m.*.*.B 9   & w   S K.g.U.Y.ZX",
"ZXZXa.g.w.L.ZXd     < l v r R [ [ D D T / [ R R D D A L n.n.N.M.C.x.#.N.b.Z.7 9 7 O r & w.` a.g.ZXZX",
"ZXZXZXZXZXZXZXS .   z F ZXZX[ [ D C C ZXZXZXZXZXZXZXZXZXn.M.#.m.&.I ;.#.ZXA.I F F.B r w v b ZXZXZXZX",
"ZXZXZXZXZXZXZXZX9     % G ZX[ [ R C ZXZXZXZXZXZXZXZXZXZXZXn.@.J C Z D L ZXZXH v Z.7 e D F ZXZXZXZXZX",
"ZXZXZXZXZXZXZXZXZXz , > F ZXD / ] R ZXZXZXZXZXZXZXZXZXZXZXZXZXZXZ Z E E ZXZXH 9 , 9 J F.ZXZXZXZXZXZX",
"ZXZXZXZXZXZXZXZXZXZXZXG J ZXZXD E R ZXZXZXZXZXZXZXZXZXZXZXZXZXT Z E R ZXZXZX;.z F ZXZXZXZXZXZXZXZXZX",
"ZXZXZXZXZXZXZXZXZXZXZXZXZXZXZXR D E R ZXZXZXZXZXZXZXZXZXZXZXZXA Z [ D ZXZXZXZXZXZXZXZXZXZXZXZXZXZXZX",
"ZXZXZXZXZXZXZXZXZXZX..W 8 n C m p p a ZXZXZXZXZXZXZXZXZXZXZXZXZ Z D R C ZXZXZXZXZXZXZXZXZXZXZXZXZXZX",
"ZXZXZXZXZXZXZXZXZXZXU r   & y * @ o w ZXZXZXZXZXZXZXZXZXZXZXZX2 % = a n a w Q ZXZXZXZXZXZXZXZXZXZXZX",
"ZXZXZXZXZXZXZXZXZXZXy @ o @ * 2 ZX* 2 ZXZXZXZXZXZXZXZXZXZXZXZXe O o o O   X s W ZXZXZXZXZXZXZXZXZXZX",
"ZXZXZXZXZXZXZXZXZXZXZXZXZXZXZXZXZXZXZXZXZXZXZXZXZXZXZXZXZXZXZXZX= e 2 @ O O & a ZXZXZXZXZXZXZXZXZXZX",
"ZXZXZXZXZXZXZXZXZXZXZXZXZXZXZXZXZXZXZXZXZXZXZXZXZXZXZXZXZXZXZXZXZXZXZXZX2 > w ZXZXZXZXZXZXZXZXZXZXZX"
};
