/* XPM */
static char *result[] = {
/* columns rows colors chars-per-pixel */
"50 50 184 2 ",
"   c #1E0A00",
".  c #200C02",
"X  c #240E08",
"o  c #231007",
"O  c #23120A",
"+  c #2E180E",
"@  c #241611",
"#  c #2A1612",
"$  c #231A15",
"%  c #2D1B14",
"&  c #241D19",
"*  c #2C1C19",
"=  c #311D16",
"-  c #311919",
";  c #2A211D",
":  c #26201C",
">  c #342117",
",  c #35241C",
"<  c #39261D",
"1  c #3B291F",
"2  c #2E2321",
"3  c #312524",
"4  c #372925",
"5  c #3C2D24",
"6  c #372C29",
"7  c #3C2E2B",
"8  c #34262A",
"9  c #3E322E",
"0  c #373230",
"q  c #3E3331",
"w  c #412F2C",
"e  c #42322E",
"r  c #40382B",
"t  c #433532",
"y  c #493535",
"u  c #443934",
"i  c #4C3A35",
"p  c #463B39",
"a  c #4B3C39",
"s  c #513E36",
"d  c #533E3B",
"f  c #593D39",
"g  c #46403E",
"h  c #4A4338",
"j  c #55433D",
"k  c #5A453E",
"l  c #5F4A3D",
"z  c #62473F",
"x  c #624A3F",
"c  c #544542",
"v  c #5A4641",
"b  c #554946",
"n  c #5C4A43",
"m  c #5B4D49",
"M  c #5C5047",
"N  c #5E534E",
"B  c #5E5657",
"V  c #5F5956",
"C  c #624C44",
"Z  c #694E44",
"A  c #634E49",
"S  c #6B4C4B",
"D  c #655147",
"F  c #6A5146",
"G  c #64514B",
"H  c #6A544B",
"J  c #70584E",
"K  c #6A4C50",
"L  c #724E56",
"P  c #655653",
"I  c #6A5552",
"U  c #6C5A55",
"Y  c #63555D",
"T  c #6D5E5A",
"R  c #715057",
"E  c #725D55",
"W  c #725E59",
"Q  c #7C5E5E",
"!  c #736157",
"~  c #75625C",
"^  c #7A645D",
"/  c #7E5F64",
"(  c #6B6463",
")  c #6F6A69",
"_  c #6D6967",
"`  c #746361",
"'  c #7A6762",
"]  c #7D6A63",
"[  c #7D6B69",
"{  c #75716F",
"}  c #7D7274",
"|  c #7E7B79",
" . c #747271",
".. c #806D67",
"X. c #816E6A",
"o. c #846066",
"O. c #81716D",
"+. c #8D776E",
"@. c #846E74",
"#. c #857372",
"$. c #8F7176",
"%. c #867876",
"&. c #8C7B74",
"*. c #84767B",
"=. c #8A747C",
"-. c #847B7C",
";. c #897B7A",
":. c #917C75",
">. c #927E7A",
",. c #81807D",
"<. c #8A827F",
"1. c #958077",
"2. c #94837C",
"3. c #8C7B84",
"4. c #858381",
"5. c #8E8383",
"6. c #8F8A87",
"7. c #8A8C8C",
"8. c #888888",
"9. c #938585",
"0. c #93858B",
"q. c #938E8E",
"w. c #988D8E",
"e. c #988B85",
"r. c #93908F",
"t. c #8F8F90",
"y. c #948C91",
"u. c #998F95",
"i. c #8D9392",
"p. c #949394",
"a. c #9A9494",
"s. c #999699",
"d. c #959B9C",
"f. c #9C9B9C",
"g. c #929298",
"h. c #A29B9D",
"j. c #AB9F9D",
"k. c #A09491",
"l. c #9DA19F",
"z. c #9E9EA2",
"x. c #A39EA2",
"c. c #97A0A3",
"v. c #9EA2A4",
"b. c #9EA5A9",
"n. c #9DA9A9",
"m. c #A2A3A4",
"M. c #ADA9A7",
"N. c #A1A6AA",
"B. c #AAA6A9",
"V. c #A3ABAD",
"C. c #AAABAD",
"Z. c #A8A5A3",
"A. c #B4ACAC",
"S. c #A4AEB1",
"D. c #ABAEB1",
"F. c #A5B3B5",
"G. c #ACB3B5",
"H. c #A7B7B9",
"J. c #A9B7B8",
"K. c #A7B8BA",
"L. c #AAB9BB",
"P. c #B5B2B2",
"I. c #B2B6B9",
"U. c #B8B7B9",
"Y. c #B3BBBC",
"T. c #BCBCBB",
"R. c #C0BCB9",
"E. c #AFBEC0",
"W. c #B5BEC0",
"Q. c #BBBEC1",
"!. c #C0BEC0",
"~. c #B6C3C4",
"^. c #BAC3C5",
"/. c #BCC7C8",
"(. c #BECACC",
"). c #C3C5C7",
"_. c #C3CACC",
"`. c #CBCDCE",
"'. c #C9CFD0",
"]. c #CAD1D2",
"[. c #D2D4D4",
"{. c #DCDCDC",
"}. c #D4D8D9",
"|. c None",
/* pixels */
"|.|.|.|.|.|.|.|.|.|.|.|.|.|.|.|.|.|.|.w.<.-.| ,.4.7.i.i.i.r.l.|.|.|.|.|.|.|.|.|.|.|.|.|.|.|.|.|.|.|.",
"|.|.|.|.|.|.|.|.|.|.|.|.|.|.j.3.@.@.3.5.p.f.v.n.S.J.L.L.W.S.J.G.D.A.P.R.|.|.|.|.|.|.|.|.|.|.|.|.|.|.",
"|.|.|.|.|.|.|.|.|.|.|.|.9.*.@.@.[ *.0.t.p.f.z.N.V.H.K.K.W.C.E.~./.`.[.'.T.A.|.|.|.|.|.|.|.|.|.|.|.|.",
"|.|.|.|.|.|.|.|.|.|.3.@.3.3.=.3.=.3.u.x.M.G.G.J.Y.W.^.(._.Y././._.'.[.[.{.).T.Z.|.|.|.|.|.|.|.|.|.|.",
"|.|.|.|.|.|.|.|.>.o.@.3.3.3.0.x.B.V.L.L.Y.L.K.E.L.K.L.L.D.F.~.~._.'.}.{.{.!.'.Y.C.C.|.|.|.|.|.|.|.|.",
"|.|.|.|.|.|.|.W L o.@.3.x.D.S.F.G.m.H.H.J.F.S.S.V.V.F.S.v.F.H.H.K.K.E./.Q.D._.U.Y.J.l.|.|.|.|.|.|.|.",
"|.|.|.|.|.|.f K L $.x.I.K.K.K.F.m.0.x.b.V.S.S.N.N.f.V.V.v.N.N.F.F.H.F.L.A.x.^.Q.Y.L.F.p.|.|.|.|.|.|.",
"|.|.|.|.|.S S I =.G.K.K.K.F.S.n.N.N.I.D.K.L.F.F.S.d.F.H.L.K.K.J.L.G.S.z.z.S.v.S.~.~.F.m.4.|.|.|.|.|.",
"|.|.|.|.m S Q w.M.F.F.V.V.V.F.K.L.F.d.| ) P h t 5 4 9 p N ( ,.z.F.W.L.F.F.x.z.J.H.E.Y.B.s.6.|.|.|.|.",
"|.|.|.|.a X.P.I.f.y.b.S.H.L.E.n. .a > o o # O     .         o * h { z.K.L.J.C.F.H.H.L.L.A.m.6.|.|.|.",
"|.|.|.r T D.E.L.V.0.N.J.L.n.) 7 o     o   O o   . . . . $         . 4 ) n.L.L.V.n.H.H.V.G.B.%.|.|.|.",
"|.|.|.h d.L.K.F.z.V.K.K.7.e . X         o     X . . X # q % O   . .   . t 7.N.F.S.h.m.F.K.I.p.a.|.|.",
"|.|.m { F.H.H.b.S.S.N.| %   = 7 O . X   o o #   . . . o # O X   . X   . . # } J.K.D.m.K.K.Y.G.<.|.|.",
"|.|.G p.H.H.S.V.K.L.8.- . . o O . . o   . O 3 O . . . .   O .   .     . .   < 7.G.Y.G.F.K.K.W.<.|.|.",
"|.j ( b.H.H.f.F.K.H.B X .       . . o # o   o . . . .   . % o . X o . X X . X B L.L.J.F.K.K.L.7.4.|.",
"|.f | V.N.a.s.H.L.b.Y =   X % X . . O % .       o   . .       o , 8 O . . . o a V.K.K.V.J.L.L.r.6.|.",
"|.f ;.J.K.N.s.S.K.z.Y =   X # X . . . . . . . o O - X       . . O @ X .   . o u C.K.K.S.F.H.K.d.a.|.",
"|.S 6.L.L.V.a.C.S.g.( >   . . . . . . .       . O # . . . . . . .   . . .   = A D.K.K.V.F.J.H.z.f.|.",
"|.#.h.M.D.Y.D.U.A.s.x.e     .   . . . . X O X . . . . . . o . . . X . . .   < 9.M.P.I.I.Q.I.P.P.Z.|.",
"|.t.`.).Q.'.Q.'.'.Q.).y   . . . .   . .   O X . . . . . . - X . . . . . .   5 I.(._.^.)._._.].].P.|.",
"|.p.F.F.D.b.N.F.N.z.V.7   . X . . . . . . . . . . . . . . . . . . . . . .   5 N.S.S.V.v.b.H.H.G.p.|.",
"|.f.V.v.G.S.F.F.F.S.f.4   .   . . . . . .   . . . . .   . . . . . . . . . . 5 N.S.s.a.S.J.G.V.V.7.|.",
"|.f.G.N.J.S.N.K.F.S.g.,   .   . . . . . . . . . . X . . . . . . . . . . .   5 m.N.V.V.F.V.H.v.G.p.|.",
"|.s.C.N.S.N.z.N.V.V.d.,   . . . . .   . . . .   .   . . . . . . . . . . .   5 V.V.I.V.V.v.N.S.K.i.|.",
"|.8.v.v.n.V.N.l.C.V.7.> . . . X o .   o     o o . .   . . O X   . . . .     < f.b.m.v.n.N.V.F.V.4.|.",
"|.|.j m m m m m b b 5 . . . . @ o   .   o   o o . . . . . X . . . . . . . . . w b b b n m m m n <.|.",
"|.|.y 7 i i 6 i y 5 %   . . . .   . . .     .   . . . . . . . . .   . . .     = u 7 s t 9 i e 5 |.|.",
"|.|.j e s k 9 k j 9 >   . . . .   .     o   . . .   . . . . .   . . . . . .   = k 7 k s 9 x i 9 |.|.",
"|.|.l e j x 9 C k q <   o   o   . . . . . o   . . . . . .   . . . . .   . . . 1 l 7 C j 9 H h e |.|.",
"|.|.l e j x 6 D k q 1           . .   . o o   . . . .   . . . . . . . . . . . 1 C 7 C j 9 H i r |.|.",
"|.|.C e j D 9 C k 9 5 O o   o   .   . .         . X . . . . . .   . . . . .   1 x 7 H k 9 H i t |.|.",
"|.|.x e j D 7 D l e t e 4 : O O o   o . o .     X O . . . .   . . . . . . .   5 C 6 U k e H i u |.|.",
"|.|.C e k D 6 P l 9 y y y 7 8 2 & @ @ X     o O O o   .   o           o . .   w C 7 T k 9 U i t |.|.",
"|.|.n e n D 9 P n 9 e 7 e y y 7 8 ; & @ & & @ O       o o o o     o     . .   w D 7 T k 9 T i t |.|.",
"|.|.G e m G 9 U n 9 h A p y y w y y 7 & & & & $ $ o o o o   . .       o . . . e D 7 T v 9 ! i t |.|.",
"|.|.D e m G 6 P n 9 k ] W P A d t y y q 6 ; & & & $ $ & : @ O o o o     . .   r A 7 U v q ! i u |.|.",
"|.<.C e m G 7 D v 9 c U ' X.' W H n d y e y 4 ; : : @ $ $ & & $ & $ $ o   .   5 m 7 U k 9 E i u 5.|.",
"l e n e n G 7 D k 0 v ( U ` E ..] ] W A v a y t 6 ; & $ @ : ; $ & & $ $ $ $ : 9 x 7 I k 9 H i u P U ",
"< e n e k m 7 C k q n ` U ^ ^ ^ ^ ! E ] ' W G v d u 7 2 ; $ $ $ $ $ $ $ $ & : u k 7 G j 9 H i u m n ",
"w u v e k v 7 C d t m ` T ..X.X.^ E ! ] ..X.[ ^ E C d t t 3 $ $ & $ $ $ & & 3 q j 9 C i 9 D u p P v ",
"e a v p j z t C k u C ` E ^ ' ] ] ] ^ ^ ] [ ^ ^ ] ] ! U n y e * & & & & & & t a v t n j t C s p T P ",
"m ` ' E G U U U ~ W W ' ~ ^ ^ ..] ] X.^ ^ ' ] ] ] ..[ ^ ] U n h t 3 & & & ; m I E E E U E U W E ' C ",
"A #.O.] ' W ^ ' [ ^ ' W E ..' ^ ^ ^ ^ ^ ] [ ^ ' ^ ^ ' ^ ] ' ! ! ~ I d 7 & : b W ^ W ^ ' Q ~ ' ^ ~ s ",
"n C C F H F F C C C z k H ..' ^ ^ ^ ^ ! E ^ ^ ! ^ ~ U ^ ^ ~ ^ ^ ' ] ] E c u m H H C Z Z C A C x Z f ",
"n F F H W C F C C C s M ^ ^ ^ ^ ^ ] ] ! E ~ ^ ^ ^ ^ ' ] ^ ! ' ] ^ ^ E ^ ^ ^ T n Z F Z Z C C C z Z n ",
"2.&...J X.&.:.1.:.%.] j W ....^ ^ ] ] ] ] X.[ ^ ^ ] ^ ^ ^ ^ ^ ! ] ..! ' ] ] P [ :.&.>.2.k.k.&.:.1.e.",
"|.|.|.|.|.|.|.|.|.|.|.( 7 b ~ ^ ~ ^ ^ ] ' ' ~ ' #.#.^ ^ ..] ..^ ' [ X.^ W A ;.|.|.|.|.|.|.|.|.|.|.|.",
"|.|.|.|.|.|.|.|.|.|.|.|._ 0 q u c P T U [ [ X.X.X...] ^ ] O.;.;.O.` H n G 2.|.|.|.|.|.|.|.|.|.|.|.|.",
"|.|.|.|.|.|.|.|.|.|.|.|.|.|.r.P c q u t d P E E W G W J E ..&.;.%.T O.j.|.|.|.|.|.|.|.|.|.|.|.|.|.|.",
"|.|.|.|.|.|.|.|.|.|.|.|.|.|.|.|.|.|.|.6.T ' S C H C l H +.2.A.|.|.|.|.|.|.|.|.|.|.|.|.|.|.|.|.|.|.|."
};
