/* XPM */
static char *result[] = {
/* columns rows colors chars-per-pixel */
"40 9 218 2 ",
"   c #020201",
".  c #030201",
"X  c #070004",
"o  c #0A0207",
"O  c #080408",
"+  c #0D050B",
"@  c #0D050E",
"#  c #0E070F",
"$  c #03090A",
"%  c #04090A",
"&  c #050B0C",
"*  c #050C0E",
"=  c #10040F",
"-  c #01100F",
";  c #060F10",
":  c #0B0B12",
">  c #090C11",
",  c #080E13",
"<  c #0A0D14",
"1  c #0D0E16",
"2  c #150512",
"3  c #170412",
"4  c #150614",
"5  c #1A0314",
"6  c #110C16",
"7  c #1E0518",
"8  c #1E0419",
"9  c #1E0519",
"0  c #150B18",
"q  c #160B1B",
"w  c #140C19",
"e  c #170D1A",
"r  c #160E1B",
"t  c #170F1B",
"y  c #170F1F",
"u  c #061214",
"i  c #031416",
"p  c #041618",
"a  c #05171A",
"s  c #0E151E",
"d  c #0A1B1F",
"f  c #18131D",
"g  c #21031A",
"h  c #22041A",
"j  c #20061B",
"k  c #26021D",
"l  c #23041D",
"z  c #24071D",
"x  c #21091C",
"c  c #1C0B20",
"v  c #1B0E22",
"b  c #1E0F23",
"n  c #1F0E25",
"m  c #0F1921",
"M  c #0D1B24",
"N  c #191628",
"B  c #151929",
"V  c #141D29",
"C  c #1A192A",
"Z  c #1A1C2F",
"A  c #270620",
"S  c #270621",
"D  c #270721",
"F  c #2E0022",
"G  c #2C0322",
"H  c #2A0521",
"J  c #2A0725",
"K  c #220C22",
"L  c #220D26",
"P  c #2B0823",
"I  c #290A27",
"U  c #2F0826",
"Y  c #2F082A",
"T  c #2F0C2C",
"R  c #350025",
"E  c #36002A",
"W  c #35032A",
"Q  c #30072A",
"!  c #31062B",
"~  c #37062C",
"^  c #36062D",
"/  c #3C032E",
"(  c #320C28",
")  c #320E28",
"_  c #300D2D",
"`  c #320C2E",
"'  c #27152F",
"]  c #281528",
"[  c #3F0331",
"{  c #340A30",
"}  c #3C0A37",
"|  c #3A0C34",
" . c #3C0F35",
".. c #3F0C37",
"X. c #380F39",
"o. c #2D1536",
"O. c #201D31",
"+. c #2C1F39",
"@. c #371230",
"#. c #301535",
"$. c #341438",
"%. c #361A3A",
"&. c #39183C",
"*. c #052023",
"=. c #0D2029",
"-. c #08282E",
";. c #14202E",
":. c #1C252E",
">. c #0E2832",
",. c #082D33",
"<. c #0A2D33",
"1. c #0B2E35",
"2. c #142332",
"3. c #132430",
"4. c #102933",
"5. c #132933",
"6. c #112C39",
"7. c #132C39",
"8. c #132E39",
"9. c #083236",
"0. c #0A3238",
"q. c #0B333A",
"w. c #0E3339",
"e. c #09363B",
"r. c #0D3438",
"t. c #0D353B",
"y. c #0D353D",
"u. c #0F353C",
"i. c #0D373E",
"p. c #13303B",
"a. c #13313E",
"s. c #1C303E",
"d. c #23263B",
"f. c #420433",
"g. c #4A053B",
"h. c #430A3B",
"j. c #440D3E",
"k. c #3D1747",
"l. c #3B1A48",
"z. c #0A3A41",
"x. c #093E41",
"c. c #0B3F45",
"v. c #1F3D4D",
"b. c #2E2446",
"n. c #33355B",
"m. c #3F3364",
"M. c #460D40",
"N. c #4C0C42",
"B. c #520641",
"V. c #540A46",
"C. c #451242",
"Z. c #4F1245",
"A. c #4B1953",
"S. c #5E1050",
"D. c #60104C",
"F. c #650D53",
"G. c #6A0A56",
"H. c #6C0A59",
"J. c #621253",
"K. c #6E1F70",
"L. c #5F2C6E",
"P. c #4E3666",
"I. c #473A6D",
"U. c #553966",
"Y. c #56326E",
"T. c #543975",
"R. c #7A2277",
"E. c #633471",
"W. c #723878",
"Q. c #054044",
"!. c #044245",
"~. c #064246",
"^. c #094147",
"/. c #114149",
"(. c #0C4F56",
"). c #104B53",
"_. c #114C56",
"`. c #124C57",
"'. c #1A4C57",
"]. c #0C5258",
"[. c #0C545D",
"{. c #11565E",
"}. c #12595D",
"|. c #13585F",
" X c #0F5760",
".X c #0A5A60",
"XX c #155863",
"oX c #264A61",
"OX c #2A4B60",
"+X c #3E406F",
"@X c #0B6367",
"#X c #0E6469",
"$X c #0A6970",
"%X c #1F6C7E",
"&X c #0A747B",
"*X c #0D757E",
"=X c #1A7080",
"-X c #187183",
";X c #137880",
":X c #107B85",
">X c #216B80",
",X c #2E6D88",
"<X c #3C719D",
"1X c #4B4980",
"2X c #535B96",
"3X c #62589F",
"4X c #72559C",
"5X c #49698C",
"6X c #496093",
"7X c #53619A",
"8X c #5B7EAD",
"9X c #843886",
"0X c #905584",
"qX c #A45F93",
"wX c #1D8388",
"eX c #79A8B1",
"rX c #87C1C7",
"tX c None",
/* pixels */
"tXtXtXtXtXtXtXtXtXtXtXtXtXtXtXtXtXtXtXtXtXtXtXtXtXtXtXtXtXtXtXtXtXtXtXtXtXtXtXtX",
"tXtXtXu j tXtXtX=.tXtXc.B.tXz.tXtX* O S.tXtXtX; h tX@X` tXx.P.v.  P tX9.. S tXtX",
"tXtX0.@ < V.tXtXa f.tX~./ tX-.F tXs x tXtXtXw.0 1 N.-XL 3X<.E.'.3 ) 8X1.q w tXtX",
"tXtXC tX_.Z.tX:X, G tX!.k 6Xp R tX2.tXtXtXtXN tX].! <XB 1X;.R..X..tXtX7.T.a.G.tX",
"tX&X%.tXtXtXtX Xc J tXQ.8 +X: E tXM z tXtX;X#.tXwX' 7X>.I.O.9X`.4 ( tXy.+.V H.tX",
"tX$X&.5X- l tXu.o.K tX^.g X.D { =X> 2 tXtXtXd.qXrXs.L.).$.T 4Xt.o ~ tXe.X A tXtX",
"tX(.| tX}.I 2X*.# = K.[.Q 9 ^ } >Xn tXtXtXtX4.0XeXZ tX*X6 W tXq.g.tXtX8.Y  .tXtX",
"tXtX3.e d C.oXt f r W.XXk.v l.j.,Xy @.tXtXtX,.] :.h.tXtXi [ tXi.H tXtX6.A.b tXtX",
"tXtX|.% 7 tX#X_ tX/.U.OXm.b.n.M.%X& + J.tXtX{.$ 5 tXtXtXm D.tXr.. U tXp.Y.5.F.tX"
};
