/* XPM */
static char *_fd7aa74dc744d498fad211d959e267eFuMgFMhWmCx3L7o2[] = {
/* columns rows colors chars-per-pixel */
"50 50 236 2 ",
"   c None",
".  c #141415",
"X  c #1B1516",
"o  c #19171A",
"O  c #1B1B1C",
"+  c #171719",
"@  c #231516",
"#  c #231C1B",
"$  c #2B1B1B",
"%  c #241719",
"&  c #331C1E",
"*  c #39181B",
"=  c #25211E",
"-  c #2C211E",
";  c #35231D",
":  c #1D1C21",
">  c #221F23",
",  c #291C21",
"<  c #3F1F25",
"1  c #222124",
"2  c #2B2523",
"3  c #25242A",
"4  c #2B2B2D",
"5  c #2B2827",
"6  c #352924",
"7  c #3C3429",
"8  c #2D2A32",
"9  c #332C34",
"0  c #343235",
"q  c #353439",
"w  c #3A393E",
"e  c #3C363A",
"r  c #481A1F",
"t  c #42271F",
"y  c #441C22",
"u  c #4B1C22",
"i  c #5B1E26",
"p  c #551D23",
"a  c #4C2423",
"s  c #452D23",
"d  c #472728",
"f  c #532425",
"g  c #5A2628",
"h  c #4B3D2A",
"j  c #453728",
"k  c #543326",
"l  c #5A3628",
"z  c #45383A",
"x  c #5B3731",
"c  c #422D3F",
"v  c #64222A",
"b  c #6B232C",
"n  c #66282B",
"m  c #73232C",
"M  c #78282E",
"N  c #65392A",
"B  c #6A2A32",
"V  c #752B33",
"C  c #7B2C33",
"Z  c #772631",
"A  c #64393B",
"S  c #743335",
"D  c #7A3435",
"F  c #723339",
"G  c #7B383A",
"H  c #723A2D",
"J  c #621F28",
"K  c #54452D",
"L  c #5A482E",
"P  c #574833",
"I  c #514530",
"U  c #67452B",
"Y  c #73482E",
"T  c #63502D",
"R  c #674C32",
"E  c #794935",
"W  c #655336",
"Q  c #6C5532",
"!  c #6C5939",
"~  c #735D34",
"^  c #725D3B",
"/  c #795636",
"(  c #7B643A",
")  c #786339",
"_  c #3C3C42",
"`  c #352940",
"'  c #443848",
"]  c #4A3B57",
"[  c #783C41",
"{  c #424045",
"}  c #46454B",
"|  c #4D4B52",
" . c #53465B",
".. c #56555B",
"X. c #595758",
"o. c #694946",
"O. c #744342",
"+. c #7A4246",
"@. c #6D564A",
"#. c #7B5744",
"$. c #6E5155",
"%. c #796545",
"&. c #7E704B",
"*. c #574A66",
"=. c #5D5B61",
"-. c #66576C",
";. c #655875",
":. c #6A6973",
">. c #776978",
",. c #76757B",
"<. c #756868",
"1. c #832B34",
"2. c #822A35",
"3. c #84343A",
"4. c #8C343C",
"5. c #843A3E",
"6. c #8B383C",
"7. c #92363C",
"8. c #81453B",
"9. c #885B37",
"0. c #925C3C",
"q. c #89673C",
"w. c #9C6D3C",
"e. c #92693D",
"r. c #9E703C",
"t. c #89713E",
"y. c #A4743E",
"u. c #A06E3E",
"i. c #883D42",
"p. c #923B43",
"a. c #963B43",
"s. c #A73E4A",
"d. c #8C4344",
"f. c #874749",
"g. c #9C4C4C",
"h. c #954649",
"j. c #97564B",
"k. c #984D52",
"l. c #8A5356",
"z. c #875558",
"x. c #985757",
"c. c #865B42",
"v. c #A3494C",
"b. c #A34C52",
"n. c #AD4A50",
"m. c #AC5A5C",
"M. c #A75758",
"N. c #B45A5B",
"B. c #AB4F50",
"V. c #856945",
"C. c #986944",
"Z. c #8B7548",
"A. c #927B4C",
"S. c #997547",
"D. c #9C6A59",
"F. c #9C7D54",
"G. c #8A7457",
"H. c #A37445",
"J. c #A47A44",
"K. c #AA7F4A",
"L. c #A57A49",
"P. c #B37E4A",
"I. c #AB6B5D",
"U. c #A76658",
"Y. c #AB7D54",
"T. c #A67A57",
"R. c #AC6950",
"E. c #AF5E61",
"W. c #90736E",
"Q. c #AB6767",
"!. c #B66767",
"~. c #B87868",
"^. c #A77673",
"/. c #B27469",
"(. c #C47A71",
"). c #9B8555",
"_. c #97824E",
"`. c #AC844C",
"'. c #A68149",
"]. c #B6864D",
"[. c #AA8552",
"{. c #AD8A54",
"}. c #AD8C59",
"|. c #A68658",
" X c #B38B53",
".X c #B68959",
"XX c #B8925C",
"oX c #9B8566",
"OX c #97847B",
"+X c #B88A66",
"@X c #A99565",
"#X c #BB9468",
"$X c #BE8571",
"%X c #BA9875",
"&X c #A68E6F",
"*X c #BBA075",
"=X c #C3956B",
"-X c #C59A68",
";X c #C48B75",
":X c #C28773",
">X c #C39A72",
",X c #C79A75",
"<X c #C99477",
"1X c #C9A36B",
"2X c #CDA374",
"3X c #C9A577",
"4X c #D1A67A",
"5X c #D5AD7C",
"6X c #D2A675",
"7X c #C2965F",
"8X c #786C89",
"9X c #7C7A85",
"0X c #7D7394",
"qX c #716688",
"wX c #695E80",
"eX c #877C99",
"rX c #82748B",
"tX c #828489",
"yX c #939399",
"uX c #8D899A",
"iX c #968BA9",
"pX c #9489A6",
"aX c #9B96A8",
"sX c #8E84A1",
"dX c #9EA1A5",
"fX c #A6A6A9",
"gX c #A2909A",
"hX c #C79187",
"jX c #DBB382",
"kX c #DCB788",
"lX c #D4B38B",
"zX c #E3BE94",
"xX c #E2BA8F",
"cX c #CEBBA5",
"vX c #E6C597",
"bX c #D9C39F",
/* pixels */
"                                              +X%X=X>X1X                                            ",
"                                        %X+X#X%XT.C.t.S.A.).|.                                      ",
"                                      %X+X+X,X|./ Z.Z._.).).).}.@X                                  ",
"                                  %X+X+XT.}.}.t.q.( ( ) ) ( ( ( A._.).@X                            ",
"                      g       ,X,X+XC.9./ Z.) ( ) T ) ~ ~ ~ ~ ~ ) ~ ( Z.A.).                        ",
"                  f.v i D 5.g.:X2XD./ ~ ( ) ~ Q T T K K K K T T Q ~ ) ) %.&.A.@X                    ",
"                  B i b Z 2.2.4.I./ Q Q Q T h s 2 = O O O = = 6 K W ! ^ ) ) %.Z.oX                  ",
"                C m C 1.p.4.1.M S R L h ; - X X = j = O O 7 7 = 4 7 I W ! ! ^ %.Z.                  ",
"              f.8.h.g.m.Q.k.1.Z C l 6 = X . o > K t.K 7 2 9 V.j 8 0 0 K T W ! ! %.                  ",
"            j.j.g.m.E.M.p.V b S k s 6 : O + 6 s t.'._.G.A.P oXA.I 5 4 K L W ! ^ ^                   ",
"          ^.i.D 6.g.b.v.p.  A x h 7 I 3 : O j R &._.@X1X3X*XhX*XoX7 0 7 L L W ! &.                  ",
"            z.V m 4.v.M.N.      K j X.w O = - %.,.,.A.1XkXcXfXcX3X).@.I L W ! %.                    ",
"              l.S b 2.b.!.!.    6 7 X.I + O 2 / oX&X_.#XvXbXcXbX3X#XV.L T !                         ",
"                z.V b 1.k.Q.Q.[ # O 3 1 + . > j V.T.'.#XkXvXkX1X%.K 7 6 4 w                         ",
"                  l.F v C h.E.!.f.d O O + . : = h q.[.-X5XjX@XI . . X 2 4 4                         ",
"                    z.F J Z 7.b.M.U.F & # . = O X g q.7X5X@X2 . . + # 5 O                           ",
"                      z.F v m 1.p.M.M.3.[ a < & a E 0.7X4XT.% . X O 5 O O                           ",
"                      e [ B i m 3.3.b.7.Q.b.2.v H 0.=X6XjXY.k & X # 4 q                             ",
"                      4 O d v i Z m a.2.k.m.g.2.m 0.,X4X2XY.E f y X 9 q {                           ",
"                      0 : o y i i J Z Z i.k.b.3.m U.6X-X.XR.E n Z u % 0 0 q {                       ",
"                        4 + . $ u p g B V p.p.G E I.jX4X=X=X.X8.7.7.r $ 0 q w                       ",
"                        _ : . . @ * p B f.k.k.F D I.xXjX6X2X5XR.a.s.a.p > q w {                     ",
"                      ..} 1 + . . @ u B l.[ p.C m I.jXjX6X,XjX,Xv.n.N.8.* 2 _ }                     ",
"                      ..} 1 + . . @ u F f.b i.f.8.j.;X<X;X+X4X;Xa.n.!.B.b $ 8 {                     ",
"                      ..{ 1 . . . . * [ F [ f.G 8.g.I.+X$X/.:XI.D n.N.B.6.f $ w |                   ",
"                      .._ 1 . . . . $ [ n x.3.m d.M.I.~.:X~.$Xj.v v.N.B.4.6.a 5 }                   ",
"                      ..q : . . . . 9 f.l.x.m D d.x.~.~.$X~.$XC.g g.N.n.M v.8.; q                   ",
"                      ..q : . . . . o.f.x.i.D / d.g.R.~.;X$X:Xj.g d.!.N.n 5.Q.F - '                 ",
"                      | 8 : . . . . [ h.k.3.C C 4.h.~.;X<X/.;XU.f O.!.!.D m v.N.; 0                 ",
"                    =.{ > . . . . @ [ G i.3.M D 6.R.,X5XlX=X,XT.f x !.!.h.m v.(.O.#                 ",
"                    =.q : + . . + y C C i.Z G #.U.=X-X5XjX5XjX+XN a Q.!.M.M 8.(.Q.d 9               ",
"                  9X| 8 : . . o < b b 2.C m V i./..X=X5X5X2XjXT.l a Q.!.N.S G I.(.U.z               ",
"                  ,.q 3 + + & g n b D 3.Z Z [ k.hX+X=X,X4X,X,XC.N a /./.N.i.u F !.(.x.              ",
"                dX:.8 : , g B v v 5.h.3.C G i.x.hX+X=X4X5XlX>X9.l a ^.hXm.m.B p d.!.!.              ",
"                fX| O j [ Z i i f.x.f.C 1.[ z.i.D.T.+X%X,X,X%X#.' d o.W.k.E.k.i i g.B.B.            ",
"              fXdX0 O P F p y O.^.O.d y d d ' ' ] *.-.;.>.8XrXqX;.] 8 % B b.!.[ u b v.v.a.p.        ",
"            yXdX9X> o , y u u W.[ % 3 9 8 ` ] ] *. .*.;.wXwX8X0XrXqX;._ ' [ z.f.u p h.a.2.2.h.      ",
"          tXyX9X| : : X @ @ d $.$ @ '  .' ] ] *.*.*.;.>.8X0X0XrXrXrXeX*.*.8X-.g g * G U.j.S         ",
"        ,.tX:.X._ : : . . . . . . @ x #.+.o.W @.$.$.$.<.<.W.rXOXrX^.&X@.' eXrX[ a * H #XxX          ",
"      9XuX9X_ =.9 > : . . . . . . 6 c.H.S.w.w.r.L.S.C.u.0.S.-X7X6X6X6X}.k wXeX .o X k Y.kX          ",
"      dXtXw | ..3 : : + . . . . . k C.H.u.w.y.J.H.L.`. XC.K.-X6X6X3X3XXXl ..eX>.: . $ E 4XzX        ",
"      ,.q 4 :.{ 3 > + + . . . . # E C.H.J.y.'. X X[. X`.e.J.7X7X1X6X5X1XR c eXeX8 . > k +XxX        ",
"          | :.8 3 : + + . . . . ; 0.@X X'.'.'.'.`.`.`.'.9.w.].7X1X1X3X1X^ 6 8XeX*.. > x +XxXzX      ",
"          yX| 3 : : + + . . . . l S. X}.{.{.{.'.'.J.H.e.N 9.H.K. XXX#X1XV.& -.eXrX8 6 T.4XkXzX      ",
"          tX0 3 : O . . . . . $ Y L.S.S.[.`.`. X].K.K.9.k Y w.J.XX1X#XXXY ; | eXsX-.E ,XjXlXzX      ",
"        dX=.3 1 O + . . . . X L S.'.{.[.H.y.J.'.`. X`.N r l H 9.e.S.[.'.U $ e eXsXuXW.4X,X=XzXvX    ",
"        yXq 3 1 O . . + . . @ Y q.S.S.u.H.K. X X.X].w.* u N Y 9.H.}.}.)./ 7 6 9XiXiXgX%X=XY.4XvX    ",
"      fX,.3 1 : . . . X . . t 9.S.}.].XXXX X].P.P.XXE $ a n Y e.C.q.S.|.~ s , ;.iXiXaXW.T.%XlX      ",
"      fX{ 3 : + . . . . + $ l S.[.{.}. X{.`.].].7XP.k @ a g 9.Y S.{.e.q.U ; - ..iXiXiXiX$.          ",
"    fXtX4 1 : + . . . + @ ; s S.}.'.J.r.y.K.].].].y.; X r f Y q./ e.e.Q l s 6  .pXiXiXaX9X          "
};
