/* XPM */
static char *_789dd01545c4534c75e1fd6655ee054o5jabyC6UZxHTKa6[] = {
/* columns rows colors chars-per-pixel */
"50 50 130 2 ",
"   c #273855",
".  c #2B3954",
"X  c #2D3C5A",
"o  c #313E5E",
"O  c #333F61",
"+  c #32415E",
"@  c #354264",
"#  c #394566",
"$  c #374668",
"%  c #3A4569",
"&  c #3E4C6D",
"*  c #424E6D",
"=  c #41506E",
"-  c #424D70",
";  c #455373",
":  c #495776",
">  c #4A5A76",
",  c #495678",
"<  c #4D5B7B",
"1  c #505C7D",
"2  c #53637E",
"3  c #535E82",
"4  c #556483",
"5  c #596685",
"6  c #576986",
"7  c #5A6986",
"8  c #576688",
"9  c #5B6788",
"0  c #576A88",
"q  c #5A6989",
"w  c #606783",
"e  c #616D8D",
"r  c #61718D",
"t  c #606F90",
"y  c #657492",
"u  c #687795",
"i  c #6A7995",
"p  c #6E7C9A",
"a  c #717D9B",
"s  c #72829D",
"d  c #7584A2",
"f  c #7885A4",
"g  c #7989A5",
"h  c #7C88A7",
"j  c #7F89A6",
"k  c #7B8AA6",
"l  c #7D88A9",
"z  c #7B8FA9",
"x  c #7E8DA9",
"c  c #7D8EA9",
"v  c #7C8FA9",
"b  c #7F8EA9",
"n  c #7F8CAA",
"m  c #7F8DAA",
"M  c #7D8EAB",
"N  c #7E8EAB",
"B  c #7E8DAC",
"V  c #7F8DAC",
"C  c #7F8DAD",
"Z  c #7D8CAA",
"A  c #7F90AA",
"S  c #818EA9",
"D  c #808DAA",
"F  c #818DAB",
"G  c #808EAB",
"H  c #808CAC",
"J  c #808DAC",
"K  c #818DAD",
"L  c #8390AB",
"P  c #8393AB",
"I  c #8090AE",
"U  c #8291AE",
"Y  c #8594AE",
"T  c #8595AF",
"R  c #8292AC",
"E  c #8B94AE",
"W  c #8693B0",
"Q  c #8796B5",
"!  c #8594B1",
"~  c #8996B3",
"^  c #8999B2",
"/  c #8C9CB3",
"(  c #8B9BB4",
")  c #8F99B6",
"_  c #8B9EB7",
"`  c #8D9DB4",
"'  c #8D9DB7",
"]  c #8F9CB6",
"[  c #8F9DB6",
"{  c #8F9CB7",
"}  c #8E9EB7",
"|  c #8B9BB5",
" . c #8F9DB8",
".. c #8F9CB9",
"X. c #8C9FB8",
"o. c #8F9EB8",
"O. c #8F9FB8",
"+. c #8F9EB9",
"@. c #8F9FB9",
"#. c #8F9FBA",
"$. c #8D9CBA",
"%. c #919BB9",
"&. c #919CB8",
"*. c #909DB8",
"=. c #919DB8",
"-. c #929CB8",
";. c #929DB8",
":. c #929CB9",
">. c #929DB9",
",. c #909FB8",
"<. c #909FB9",
"1. c #929CBA",
"2. c #909EBA",
"3. c #929FBC",
"4. c #929FBD",
"5. c #919FBD",
"6. c #92A1BF",
"7. c #96A5BD",
"8. c #93A3BD",
"9. c #98A2BF",
"0. c #95A2C0",
"q. c #96A6C1",
"w. c #97A6C5",
"e. c #95A3C1",
"r. c #99A6C3",
"t. c #98A7C4",
"y. c #98A7C1",
"u. c #9AA8C4",
"i. c #9AA9C4",
"p. c #9EABC9",
/* pixels */
"-.-.%.....} } -.} } } &.&.-.] 9.a . # # # o * &.&.&.&.-.} -.-.&.%.%.1.1.1.../ / -.8.} -...} _ | X...",
"D J V V N N z A v A N S S S S P s > > + % - > D S x N N x x N n J V J J H Y / P s k A N V z A A A k ",
"5 5 5 8 8 6 8 4 7 5 6 4 4 4 4 2 u r.D o - e e 9 4 6 8 6 8 8 8 8 0 8 9 9 4 a 7.i . - 9 9 6 6 4 6 5 2 ",
"5 7 9 9 7 7 9 7 q 7 q r e r q 5 u -.D o - 9 9 q 7 0 7 6 6 0 7 7 q q q q 8 p } y @ , t q q q 0 q 7 w ",
"7 q q 7 9 q q q 7 2 s ` ^ } d 2 u 9.f O * 9 q 0 q q q 7 7 9 q 0 7 q q 7 0 q 7 7 9 q 0 0 7 q q 8 7 w ",
"q q 0 7 9 q 9 0 7 5 k 8./ ..g 4 i >.d # - 9 q 0 7 7 q 0 7 9 7 0 q q 7 q 0 q 9 q 9 q q 9 7 7 q 0 q w ",
"9 q q 0 7 0 q 7 7 5 r r r r q 7 q y 7 O - q q 9 q 7 q 9 7 q 9 q 0 7 q q 7 9 9 9 q 9 q 7 7 7 q 9 7 7 ",
"9 q 9 7 7 5 0 q 7 4 6 9 6 4 9 6 7 7 1 O & q q q q 9 7 q q q 7 0 9 q 7 7 0 q 6 7 6 7 q 0 7 q q 9 7 7 ",
"9 q q 7 g L 2 & 2 q q q q q q 8 y W p O - q q 9 9 0 9 q 0 q q 0 7 q q q 7 q 9 u Q i & > 8 q q q 7 7 ",
"9 q 9 9 T 7.> X < q q q q q 9 6 p w.l O - q q 9 q 7 7 7 7 9 7 0 q 7 7 q q q 6 p w.s + & q q 0 q q w ",
"7 7 9 7 i s 4 , 8 q q q 9 q 9 8 q d t $ & q 9 9 7 7 7 7 7 7 q 7 0 0 q q 7 0 5 p e.s + & q q q q 7 7 ",
"7 7 7 7 6 6 0 q q q q q q 0 q q 7 q 3 O & t w 9 0 q q r 7 0 0 q 0 q 0 q q q 5 s e.s X = q 9 0 8 7 w ",
"w q w 9 9 9 q 8 q 6 8 q 8 q 8 q 6 < , # - 1 3 9 9 , , 8 q q q q q 0 q q 0 0 0 u M u & < 9 8 q q 7 7 ",
"e q e e q q q q q q q q q q q t 3 @ O # % O % 9 q $ $ 8 q q t q q 0 q q q t 0 0 8 8 t t t q q q 7 e ",
"3 3 3 3 3 3 3 3 4 3 3 4 8 3 3 8 , * % % * O - 3 3 $ $ 3 4 4 4 4 4 3 3 3 3 3 3 3 3 3 3 3 3 3 3 4 4 2 ",
"O % # O # # $ # $ # # @ $ $ @ O O O O % O # O O $ @ $ O # @ @ @ @ @ @ @ @ $ @ $ $ + $ $ O $ @ # @ + ",
"* = * = * = * = * * = = ; * * * - * * * & & = = = = * * - # # # # $ # * * = & ; & & ; & * * = - * * ",
"~ ^ E ~ ~ ~ ~ ~ ~ ~ ~ ^ ~ ~ ~ ^ ) ~ ~ ~ ^ ^ ^ ^ ^ ^ ~ ~ ( : @ # # # + u ) ~ ^ ^ ^ ^ ^ | E ^ ( ~ E E ",
"~ %.| ..} ) } | } } } } ) | -.^ } | ( | | | / } / / } ( -.: @ & # $ + p 6.| | | | ^ _ _ / / _ _ -.) ",
"r r r t r r r r r r r q d #.g q r r r r r r r r r r r r e k P > o > 8 q y t r t r r r t r r t r y w ",
"w 9 5 9 6 6 9 4 5 8 5 2 d w.f 2 6 4 6 5 5 6 5 5 5 7 7 2 5 R 7.1 X 3 q q 6 6 5 6 6 5 8 4 2 2 6 6 w 5 ",
"w w 9 9 9 0 7 7 7 7 7 7 q p y 8 7 7 0 q 7 7 0 0 7 7 7 7 5 R 8.< o 1 q q 7 7 7 0 7 7 6 y S s q q 7 w ",
"7 9 9 9 q q q 9 0 q 7 9 8 8 8 q 7 q q 9 7 q q q 7 q 7 7 2 P 8.< X 2 q 0 0 9 q q 9 q 0 u 7.^ 9 0 q 7 ",
"7 9 q q q q q q q q 9 9 q q q q 9 9 q q 9 9 9 q q q 7 r 2 S 8.< o 2 q q 0 9 q q 9 q 9 t s p 0 9 9 7 ",
"w 9 q q q q q q 9 q q q q q q q q q q q q q q q q q q 9 7 R 8.< X 1 q q 0 q q 9 q q 9 7 8 0 q 0 q w ",
"7 9 9 0 9 q 9 q q q q q q 9 9 9 q q q q 9 0 q 0 q q q 9 6 L 8.< o 1 q q q 7 9 9 q q q 9 7 q q 8 7 7 ",
"w 9 q 9 5 5 9 9 t 9 q q q q 9 q q 0 0 7 q q q 0 q q q q 5 P 8.> o 1 q 0 q 6 4 7 9 q q 7 7 9 8 q 7 5 ",
"9 9 q 9 r y 8 8 3 4 q q q q q q 9 7 q 9 7 0 9 9 q q q q 5 P 8.> o 2 e q 0 r y r 7 0 7 0 0 9 q 0 q 7 ",
"q q q 6 R e.< o % # , q 0 q 0 q q q 7 q 7 w q 9 0 q 9 7 7 Y 8.1 o 1 7 q 8 d 0.f 6 q q 0 7 q 9 9 7 w ",
"7 9 q 6 N ..1 @ % $ , q 7 9 7 q 0 7 7 7 5 7 9 9 7 q 9 9 7 k ) 1 + < 7 7 8 a #.d 4 9 q 7 q q 9 q q w ",
"9 q 9 q 7 e 9 9 9 9 q q 7 q 9 q 9 e 3 # # # * q 7 7 7 7 7 ; & # $ & $ < q q e q q q 7 q q q q q 7 7 ",
"w e q 7 7 7 q 7 e q q q q q 9 9 9 e 1 # @ O & 7 q 7 7 7 9 & # # $ $ @ < q q q q q q q q q q q q q w ",
"- - * * * - * - & - - & & & & & & - & % % # % * * * * * - % % % % % % & * * * * - - - - - * - - - ; ",
"o o o X + X @ X X O O # # # @ # # O O O O O O o o o o o X @ O O # O O O o o o O o O o + o O X O o O ",
"a a a a s p s p p s 2 # $ @ $ $ > a p p p p a a a p a p p p p p p a p p p p p p p p p a a a a a a a ",
"4.0.8.9.8.8.8.7.6.i.7 X # # # X 5 y.8.8.8.7.8.8.e.e.0.0.6.8.#.8.7.8.8.6.8.7.7.8.7.7.7.6.e.e.e.e.r.9.",
"a f s s s s s s s s u r < O * ; 5 s s s s s s s d d s s s T _ s r s s s s s s s s s s s d s s s s s ",
"3 9 6 2 6 2 6 4 6 2 d p.y X : e 7 6 4 6 2 6 2 6 4 4 6 2 2 R 8.>   > 5 6 6 2 6 5 4 2 4 4 4 4 2 2 2 2 ",
"w q q 5 7 6 q 0 q 6 f e.r X : 7 9 9 0 q 0 0 q q 6 9 6 0 7 s R 4 & 4 q q 0 7 q 7 0 q 7 7 0 0 6 6 7 7 ",
"q 9 9 5 7 7 7 9 q 4 f i.r o , q q q 7 7 7 7 7 q 0 9 q q 0 5 6 7 q 7 0 7 0 7 q 0 0 0 7 5 e q 0 0 7 w ",
"7 0 y r q 7 q 9 r 6 s _ q X : q 9 q q 9 q 0 7 q 7 0 9 7 0 9 q 9 7 q 0 q q q 9 q r r t t 3 4 0 0 7 7 ",
"9 9 ! _ y 7 0 q 7 8 q q < @ , q 0 q q q 7 0 0 q q 0 q 0 9 9 9 9 9 q 7 9 9 9 6 s 5...e.f + & 8 q 7 7 ",
"5 q ! | r 7 7 9 7 9 6 t , + : q 9 q 8 9 9 7 q 9 q 7 0 q 9 q q q 0 7 q 7 q q 7 p #.| #.f @ & 0 q 7 w ",
"7 q q r 9 9 q q 9 7 9 q , + : t 9 9 9 9 q 0 q 7 q q 9 q q q q q q q q 7 0 0 q q q y t q 8 0 t 8 7 5 ",
"7 7 7 7 9 9 9 q q 9 9 t , + , 0 q q q q q q q q 7 q 7 9 q q 8 q 7 q 7 q q q 6 6 0 7 7 7 7 9 9 0 q 7 ",
"5 7 7 7 9 9 7 7 7 9 9 q , @ , 0 8 8 q q q q q q q q q 9 q 9 q q 7 q q 7 q 0 q q 9 q 9 q 5 7 9 0 7 5 ",
"7 7 6 6 e w w 7 q w 9 q , @ : q 8 8 8 t q 0 q 0 q q q q q q q 9 q 6 0 7 r 0 q q q q q q 7 0 9 q 7 w ",
"7 0 6 6 < - 9 q q q 3 ; & $ & , 3 t 8 0 0 0 q q q q 8 q q q q 9 q 9 9 2 & 3 q q 0 9 q 9 7 9 9 0 0 7 ",
"q e q q & @ 4 t 8 t ; @ $ % % O - t 9 9 e 9 9 q w q t 9 e 9 3 t q q q , O , t q q q r r 0 0 0 q q t ",
"< 1 < < & $ ; 3 , 3 & % $ % % O - 3 1 1 1 1 < 3 < < 3 , < 3 1 3 3 3 3 - % - < < < > > > < 2 < 3 3 , "
};
